P2
# CREATOR: GIMP PNM Filter Version 1.1
19 19
255
100
0
0
0
0
0
0
0
0
0
0
0
0
0
0
0
0
0
100
100
0
0
0
0
0
0
0
0
0
0
0
0
0
0
0
0
0
100
100
0
0
0
0
0
0
0
0
0
0
0
0
0
0
0
0
0
100
100
0
0
0
0
0
0
0
0
0
0
0
0
0
0
0
0
0
100
100
0
0
0
0
0
0
0
0
0
0
0
0
0
0
0
0
0
100
96
0
0
0
0
0
0
0
0
0
0
0
0
0
0
0
0
0
100
96
0
0
0
0
0
0
0
0
0
0
0
0
0
0
0
0
0
100
96
0
0
0
0
0
0
0
0
0
0
0
0
0
0
0
0
0
100
96
0
0
0
0
0
0
0
0
0
0
0
0
0
0
0
0
0
100
96
0
0
0
0
0
0
0
0
0
0
0
0
0
0
0
0
0
100
96
0
0
0
0
0
0
0
0
0
0
0
0
0
0
0
0
0
100
96
0
0
0
0
0
0
0
0
0
0
0
0
0
0
0
0
0
100
96
0
0
0
0
0
0
0
0
0
0
0
0
0
0
0
0
0
100
96
0
0
0
0
0
0
0
0
0
0
0
0
0
0
0
0
0
100
100
0
0
0
0
0
0
0
0
0
0
0
0
0
0
0
0
0
100
100
0
0
0
0
0
0
0
0
0
0
0
0
0
0
0
0
0
100
100
0
0
0
0
0
0
0
0
0
0
0
0
0
0
0
0
0
100
100
0
0
0
0
0
0
0
0
0
0
0
0
0
0
0
0
0
100
100
0
0
0
0
0
0
0
0
0
0
0
0
0
0
0
0
0
100
